<?xml version="1.0" standalone="no"?>
<!DOCTYPE svg PUBLIC "-//W3C//DTD SVG 20010904//EN"
 "http://www.w3.org/TR/2001/REC-SVG-20010904/DTD/svg10.dtd">
<svg version="1.0" xmlns="http://www.w3.org/2000/svg"
 width="166.000000pt" height="50.000000pt" viewBox="0 0 166.000000 50.000000"
 preserveAspectRatio="xMidYMid meet">

<g transform="translate(0.000000,50.000000) scale(0.100000,-0.100000)"
fill="#000000" stroke="none">
<path d="M0 250 l0 -250 830 0 830 0 0 250 0 250 -830 0 -830 0 0 -250z m490
140 l0 -50 -44 0 c-32 0 -46 -5 -50 -17 -4 -10 -7 -67 -6 -128 1 -60 1 -116 1
-122 -1 -9 -20 -13 -61 -13 l-60 0 0 139 0 140 -47 3 c-46 3 -48 4 -51 36 -6
63 -8 62 163 62 l155 0 0 -50z m325 0 l0 -45 -75 -5 -75 -5 0 -85 0 -85 75 -5
75 -5 0 -45 0 -45 -113 0 c-112 0 -114 0 -138 28 -23 27 -24 35 -24 161 0 125
1 134 23 153 33 30 42 32 152 30 l100 -2 0 -45z m315 0 l0 -50 -35 0 -35 0 0
-90 0 -90 35 0 35 0 0 -50 0 -50 -130 0 -130 0 0 50 0 50 35 0 35 0 0 90 0 90
-35 0 -35 0 0 50 0 50 130 0 130 0 0 -50z m338 3 l-3 -48 -77 -3 c-58 -2 -78
-6 -78 -17 0 -8 16 -16 43 -20 121 -18 132 -28 132 -126 0 -58 -4 -72 -23 -91
-21 -21 -33 -23 -147 -26 l-125 -4 0 51 0 50 85 3 c115 4 116 26 1 43 -21 4
-49 17 -62 30 -20 20 -24 34 -24 87 1 102 23 117 173 118 l108 0 -3 -47z"/>
</g>
</svg>
